<svg id="_001-telephone" data-name="001-telephone" xmlns="http://www.w3.org/2000/svg" width="15.938" height="15.939" viewBox="0 0 15.938 15.939">
  <path id="Path_659" data-name="Path 659" d="M15.539,11.756,13.557,9.774a1.4,1.4,0,0,0-1.981,0l-.9.9a1.063,1.063,0,0,1-1.5,0l-3.9-3.907a1.061,1.061,0,0,1,0-1.5l.9-.9a1.4,1.4,0,0,0,0-1.982L4.19.41a1.4,1.4,0,0,0-1.98,0l-.722.716a5.058,5.058,0,0,0,0,7.145l6.185,6.189a5.049,5.049,0,0,0,7.145,0l.721-.721A1.4,1.4,0,0,0,15.539,11.756ZM2.869,1.07a.468.468,0,0,1,.661,0L5.511,3.045a.467.467,0,0,1,0,.66l-.33.33L2.541,1.4ZM8.334,13.8,2.149,7.609a4.106,4.106,0,0,1-.258-5.541L4.523,4.7A1.993,1.993,0,0,0,4.61,7.428l3.9,3.907h0a1.993,1.993,0,0,0,2.729.087l2.633,2.633A4.1,4.1,0,0,1,8.334,13.8Zm6.545-.721-.33.33-2.642-2.642.33-.33a.468.468,0,0,1,.66,0l1.981,1.981A.468.468,0,0,1,14.878,13.077Z" transform="translate(-0.011 0)" fill="#484848"/>
</svg>
