<svg xmlns="http://www.w3.org/2000/svg" width="19.545" height="19.545" viewBox="0 0 19.545 19.545">
  <g id="_003-film" data-name="003-film" transform="translate(0.05 0.05)">
    <path id="Path_669" data-name="Path 669" d="M19.115,18.786a2.64,2.64,0,0,1-2.637-2.637s0-.006,0-.009a9.566,9.566,0,1,0-.6.582,3.3,3.3,0,0,0,3.242,2.722.33.33,0,0,0,0-.659ZM.659,9.558a8.9,8.9,0,1,1,8.9,8.9A8.908,8.908,0,0,1,.659,9.558Z" fill="#484848" stroke="#ffc80a" stroke-width="0.1"/>
    <path id="Path_670" data-name="Path 670" d="M12.239,4a8.239,8.239,0,1,0,8.239,8.239A8.249,8.249,0,0,0,12.239,4Zm0,15.82a7.58,7.58,0,1,1,7.58-7.58A7.588,7.588,0,0,1,12.239,19.82Z" transform="translate(-2.682 -2.682)" fill="#484848" stroke="#ffc80a" stroke-width="0.1"/>
    <path id="Path_671" data-name="Path 671" d="M36.307,22a2.3,2.3,0,0,0-.322.025l-.008-.014-.247.063-.01,0a2.266,2.266,0,0,0-.353.123l-.015.007a2.268,2.268,0,0,0-.318.175l-.008,0a2.313,2.313,0,0,0-.263.207l-.05.045a2.327,2.327,0,0,0-.214.234c-.014.018-.027.036-.041.054a2.3,2.3,0,0,0-.18.275l0,.006a2.329,2.329,0,0,0-.136.307c-.007.019-.014.038-.021.057a2.31,2.31,0,0,0-.082.321c0,.02-.006.041-.01.062a2.349,2.349,0,0,0-.029.35,2.314,2.314,0,0,0,.029.35c0,.021.006.041.01.062a2.264,2.264,0,0,0,.082.321c.006.019.014.038.021.056a2.287,2.287,0,0,0,.136.307l0,.006a2.31,2.31,0,0,0,.179.275l.041.055a2.288,2.288,0,0,0,.214.234l.05.045a2.316,2.316,0,0,0,.263.207l.008,0a2.338,2.338,0,0,0,.318.175l.014.007a2.263,2.263,0,0,0,.352.123l.01,0,.247.063.008-.014A2.306,2.306,0,1,0,36.307,22Zm-.33,2.307a3.632,3.632,0,0,1-.329,1.508,1.652,1.652,0,0,1-.235-.128c-.027-.017-.051-.037-.076-.056a1.726,1.726,0,0,1-.154-.127c-.022-.021-.044-.042-.065-.064a1.729,1.729,0,0,1-.154-.186c-.008-.012-.018-.022-.026-.034a1.644,1.644,0,0,1-.135-.248c-.011-.025-.019-.051-.029-.076a1.615,1.615,0,0,1-.064-.207c-.007-.028-.014-.057-.019-.086a1.664,1.664,0,0,1-.03-.3,1.634,1.634,0,0,1,.03-.3c.005-.029.013-.057.019-.086a1.616,1.616,0,0,1,.064-.207c.01-.025.018-.051.029-.076a1.644,1.644,0,0,1,.135-.248c.008-.012.018-.022.026-.034a1.6,1.6,0,0,1,.154-.186c.021-.022.043-.043.065-.064a1.588,1.588,0,0,1,.154-.127c.025-.018.05-.038.076-.056a1.67,1.67,0,0,1,.235-.128A3.637,3.637,0,0,1,35.977,24.307Zm.33,1.648h0a4.228,4.228,0,0,0,0-3.3h0a1.648,1.648,0,0,1,0,3.3Z" transform="translate(-22.795 -14.749)" fill="#484848" stroke="#ffc80a" stroke-width="0.1"/>
    <path id="Path_672" data-name="Path 672" d="M14.113,25.739c.014-.018.027-.036.041-.054a2.333,2.333,0,0,0,.179-.274l0-.007a2.281,2.281,0,0,0,.135-.307c.007-.019.014-.037.021-.056a2.257,2.257,0,0,0,.082-.321c0-.02.006-.041.01-.062a2.354,2.354,0,0,0,.029-.35,2.311,2.311,0,0,0-.029-.35c0-.021-.006-.041-.01-.062a2.28,2.28,0,0,0-.082-.321c-.006-.019-.014-.038-.021-.057a2.259,2.259,0,0,0-.135-.307l0-.007a2.337,2.337,0,0,0-.179-.275l-.041-.054a2.289,2.289,0,0,0-.214-.234l-.05-.045a2.316,2.316,0,0,0-.263-.207l-.008,0a2.338,2.338,0,0,0-.318-.175l-.015-.007a2.3,2.3,0,0,0-.353-.123l-.009,0-.247-.063-.008.014A2.344,2.344,0,0,0,12.307,22a2.307,2.307,0,1,0,.322,4.589l.008.014.247-.063.01,0a2.251,2.251,0,0,0,.352-.123l.015-.007a2.3,2.3,0,0,0,.318-.175l.008,0a2.316,2.316,0,0,0,.263-.207l.05-.045A2.327,2.327,0,0,0,14.113,25.739ZM13.925,24.6c-.005.029-.013.057-.019.086a1.616,1.616,0,0,1-.064.207c-.01.025-.018.051-.029.076a1.644,1.644,0,0,1-.135.248c-.008.012-.018.022-.026.034a1.6,1.6,0,0,1-.154.186c-.021.022-.043.043-.065.064a1.589,1.589,0,0,1-.154.127c-.025.018-.05.038-.076.056a1.671,1.671,0,0,1-.235.128,3.622,3.622,0,0,1,0-3.017,1.652,1.652,0,0,1,.235.128c.027.017.051.037.076.056a1.727,1.727,0,0,1,.154.127c.022.021.044.042.065.064a1.729,1.729,0,0,1,.154.186c.008.012.018.022.026.034a1.644,1.644,0,0,1,.135.248c.011.025.019.051.029.076a1.616,1.616,0,0,1,.064.207c.007.028.014.057.019.086a1.664,1.664,0,0,1,.03.3A1.634,1.634,0,0,1,13.925,24.6Zm-3.266-.3a1.65,1.65,0,0,1,1.648-1.648h0a4.228,4.228,0,0,0,0,3.3h0A1.65,1.65,0,0,1,10.659,24.307Z" transform="translate(-6.704 -14.749)" fill="#484848" stroke="#ffc80a" stroke-width="0.1"/>
    <path id="Path_673" data-name="Path 673" d="M22.012,12.636l.063.247,0,.01a2.251,2.251,0,0,0,.123.352l.007.015a2.3,2.3,0,0,0,.175.318l0,.008a2.346,2.346,0,0,0,.207.263l.045.05a2.327,2.327,0,0,0,.234.214l.054.041a2.3,2.3,0,0,0,.275.18l.006,0a2.33,2.33,0,0,0,.307.136l.056.021a2.31,2.31,0,0,0,.321.082l.062.01a2.358,2.358,0,0,0,.35.029,2.314,2.314,0,0,0,.35-.029l.062-.01a2.264,2.264,0,0,0,.321-.082l.057-.021a2.287,2.287,0,0,0,.307-.136l.006,0a2.3,2.3,0,0,0,.275-.18l.054-.041a2.289,2.289,0,0,0,.234-.214l.045-.05a2.313,2.313,0,0,0,.207-.263l0-.008a2.338,2.338,0,0,0,.175-.318l.007-.015a2.3,2.3,0,0,0,.123-.353l0-.01.063-.247-.014-.008a2.344,2.344,0,0,0,.025-.321,2.307,2.307,0,1,0-4.589.322Zm3.676.565c-.017.027-.037.051-.056.076a1.727,1.727,0,0,1-.127.154c-.021.022-.042.044-.064.065a1.728,1.728,0,0,1-.186.154c-.012.008-.022.018-.034.026a1.644,1.644,0,0,1-.248.135c-.025.011-.051.019-.076.029a1.616,1.616,0,0,1-.207.064c-.028.007-.057.014-.086.019a1.485,1.485,0,0,1-.594,0c-.029-.005-.057-.013-.086-.019a1.616,1.616,0,0,1-.207-.064c-.025-.01-.051-.018-.076-.029a1.644,1.644,0,0,1-.248-.135c-.012-.008-.022-.018-.034-.026a1.631,1.631,0,0,1-.186-.154c-.022-.021-.043-.043-.064-.065a1.638,1.638,0,0,1-.127-.154c-.018-.025-.038-.05-.056-.076a1.638,1.638,0,0,1-.128-.235,3.675,3.675,0,0,1,3.017,0A1.652,1.652,0,0,1,25.688,13.2Zm-1.381-2.542a1.65,1.65,0,0,1,1.648,1.648s0,0,0,.006a4.376,4.376,0,0,0-3.294,0s0,0,0-.006A1.65,1.65,0,0,1,24.307,10.659Z" transform="translate(-14.749 -6.704)" fill="#484848" stroke="#ffc80a" stroke-width="0.1"/>
    <path id="Path_674" data-name="Path 674" d="M26.6,35.978l-.063-.247,0-.009a2.3,2.3,0,0,0-.123-.353l-.007-.015a2.3,2.3,0,0,0-.175-.318l0-.008a2.316,2.316,0,0,0-.207-.263l-.045-.05a2.288,2.288,0,0,0-.234-.214l-.054-.041a2.31,2.31,0,0,0-.275-.179l-.007,0a2.3,2.3,0,0,0-.307-.135l-.057-.021a2.3,2.3,0,0,0-.321-.082l-.062-.01a2.345,2.345,0,0,0-.35-.029,2.31,2.31,0,0,0-.35.029l-.062.01a2.326,2.326,0,0,0-.321.082l-.056.021a2.281,2.281,0,0,0-.307.135l-.007,0a2.293,2.293,0,0,0-.274.179l-.054.041a2.289,2.289,0,0,0-.234.214l-.045.05a2.287,2.287,0,0,0-.207.263l0,.008a2.3,2.3,0,0,0-.175.318l-.007.015a2.3,2.3,0,0,0-.123.352s0,.006,0,.01l-.063.247.014.008a2.284,2.284,0,0,0-.025.321,2.307,2.307,0,1,0,4.589-.322Zm-3.676-.565c.017-.027.037-.051.056-.076a1.726,1.726,0,0,1,.127-.154c.021-.022.042-.044.064-.065a1.729,1.729,0,0,1,.186-.154c.012-.008.022-.018.034-.026a1.644,1.644,0,0,1,.248-.135c.025-.011.051-.019.076-.029a1.616,1.616,0,0,1,.207-.064c.028-.007.057-.014.086-.019a1.485,1.485,0,0,1,.594,0c.029.005.057.013.086.019a1.616,1.616,0,0,1,.207.064c.025.01.051.018.076.029a1.644,1.644,0,0,1,.248.135c.012.008.022.018.034.026a1.631,1.631,0,0,1,.186.154c.022.021.043.043.064.065a1.637,1.637,0,0,1,.127.154c.018.025.038.05.056.076a1.637,1.637,0,0,1,.128.235,3.675,3.675,0,0,1-3.017,0A1.652,1.652,0,0,1,22.926,35.413Zm1.381,2.542a1.65,1.65,0,0,1-1.648-1.648s0,0,0,0a4.228,4.228,0,0,0,3.3,0s0,0,0,0A1.65,1.65,0,0,1,24.307,37.955Z" transform="translate(-14.749 -22.795)" fill="#484848" stroke="#ffc80a" stroke-width="0.1"/>
  </g>
</svg>
