<svg id="_004-confetti" data-name="004-confetti" xmlns="http://www.w3.org/2000/svg" width="18.773" height="18.774" viewBox="0 0 18.773 18.774">
  <path id="Path_675" data-name="Path 675" d="M450.151,127.386a.367.367,0,1,0,0,.518A.366.366,0,0,0,450.151,127.386Z" transform="translate(-433.043 -122.611)" fill="#484848"/>
  <path id="Path_676" data-name="Path 676" d="M421.869,14.253a.367.367,0,1,0,0,.518A.367.367,0,0,0,421.869,14.253Z" transform="translate(-405.798 -13.627)" fill="#484848"/>
  <path id="Path_677" data-name="Path 677" d="M379.439,169.813a.367.367,0,1,0,0,.519A.367.367,0,0,0,379.439,169.813Z" transform="translate(-364.923 -163.483)" fill="#484848"/>
  <path id="Path_678" data-name="Path 678" d="M308.729,99.1a.367.367,0,1,0,0,.519A.367.367,0,0,0,308.729,99.1Z" transform="translate(-296.806 -95.366)" fill="#484848"/>
  <path id="Path_679" data-name="Path 679" d="M383.662.348a.367.367,0,1,0-.732.04,1.939,1.939,0,0,1-.412,1.276,1.831,1.831,0,0,1-1.276.412,2.647,2.647,0,0,0-1.835.625,2.648,2.648,0,0,0-.625,1.835.366.366,0,0,0,.366.346h.019a.367.367,0,0,0,.347-.385,1.929,1.929,0,0,1,.412-1.277,1.832,1.832,0,0,1,1.276-.412,2.551,2.551,0,0,0,1.835-.625A2.648,2.648,0,0,0,383.662.348Z" transform="translate(-364.891 -0.001)" fill="#484848"/>
  <path id="Path_680" data-name="Path 680" d="M18.788,5.532a.367.367,0,0,0-.732.039,1.929,1.929,0,0,1-.412,1.277,1.831,1.831,0,0,1-1.276.412,2.647,2.647,0,0,0-1.835.625,1.847,1.847,0,0,0-.3.4,23.952,23.952,0,0,0-1.775-1.964A20.38,20.38,0,0,0,9.532,3.845a1.39,1.39,0,0,1,.334-.625,1.832,1.832,0,0,1,1.276-.412,2.551,2.551,0,0,0,1.835-.625A2.649,2.649,0,0,0,13.6.347a.367.367,0,1,0-.732.04,1.939,1.939,0,0,1-.412,1.276,1.831,1.831,0,0,1-1.276.412A2.647,2.647,0,0,0,9.347,2.7a2.008,2.008,0,0,0-.458.748c-.652-.362-1.66-.779-2.155-.216C6.626,3.346.266,16.9.118,17.216l0,.006a1.1,1.1,0,0,0,1.454,1.454l.007,0s13.919-6.559,14.008-6.663c.495-.527.2-1.578-.845-3.049a1.321,1.321,0,0,1,.313-.557,1.832,1.832,0,0,1,1.276-.412,2.55,2.55,0,0,0,1.835-.625A2.648,2.648,0,0,0,18.788,5.532ZM4.53,9.586a1.466,1.466,0,0,1-1.176,2.491Zm-.937,7.321a1.1,1.1,0,1,1,1.974-.934Zm5.759-2.725a1.467,1.467,0,0,1,2.631-1.245Zm3.3-1.56A2.2,2.2,0,0,0,8.686,14.5L6.233,15.658a1.833,1.833,0,1,0-3.305,1.564l-1.662.786a.367.367,0,0,1-.483-.483l2.245-4.757A2.2,2.2,0,0,0,4.856,8.9L6.75,4.881A15.126,15.126,0,0,0,9.861,8.919,15.116,15.116,0,0,0,13.9,12.03Zm2.42-1.145-.154.073a3.117,3.117,0,0,1-1.61-.684A19.177,19.177,0,0,1,10.38,8.4,19.19,19.19,0,0,1,7.915,5.477a3.124,3.124,0,0,1-.686-1.611L7.3,3.713c.128-.052.551-.035,1.429.49a2.634,2.634,0,0,0-.008.333.367.367,0,0,0,.366.347h.02a.366.366,0,0,0,.316-.22,20.942,20.942,0,0,1,2.512,2.183,21.732,21.732,0,0,1,2.013,2.28,3.021,3.021,0,0,0-.041.6.366.366,0,0,0,.366.346h.019a.364.364,0,0,0,.233-.1C15.06,10.837,15.136,11.325,15.069,11.478Z" transform="translate(-0.017 0)" fill="#484848"/>
  <path id="Path_681" data-name="Path 681" d="M179.685,245.732a1.1,1.1,0,1,0,0,1.556h0A1.1,1.1,0,0,0,179.685,245.732Zm-.518,1.037a.367.367,0,1,1,0-.519A.367.367,0,0,1,179.167,246.77Z" transform="translate(-171.289 -236.412)" fill="#484848"/>
</svg>
