<svg id="_005-wine" data-name="005-wine" xmlns="http://www.w3.org/2000/svg" width="17.346" height="23.722" viewBox="0 0 17.346 23.722">
  <path id="Path_682" data-name="Path 682" d="M74.344,7.275V.4a.4.4,0,0,0-.4-.4H71.577a.4.4,0,0,0-.4.4V7.275a4.658,4.658,0,0,0-2.372,4.076V23.327a.4.4,0,0,0,.4.4h7.117a.4.4,0,0,0,.4-.4V11.352A4.658,4.658,0,0,0,74.344,7.275Zm1.581,15.657H69.6V11.351a3.873,3.873,0,0,1,2.154-3.485.4.4,0,0,0,.219-.354V.791h1.581V7.512a.4.4,0,0,0,.219.354,3.873,3.873,0,0,1,2.154,3.485Z" transform="translate(-68.809)" fill="#484848"/>
  <rect id="Rectangle_161" data-name="Rectangle 161" width="2.372" height="0.791" transform="translate(2.766 1.977)" fill="#484848"/>
  <path id="Path_683" data-name="Path 683" d="M298.73,167.418l-.708-4.946a.4.4,0,0,0-.391-.339h-4.744a.4.4,0,0,0-.392.339l-.707,4.924a3.339,3.339,0,0,0,.07,1.335l.069.29a3.431,3.431,0,0,0,3.332,2.6h.006a3.436,3.436,0,0,0,3.329-2.586l.065-.276A3.343,3.343,0,0,0,298.73,167.418Zm-.839,1.151-.065.277a2.644,2.644,0,0,1-2.562,1.985h-.005a2.639,2.639,0,0,1-2.564-2l-.07-.293a2.555,2.555,0,0,1-.055-1.03l.659-4.587h4.059l.66,4.609A2.566,2.566,0,0,1,297.891,168.57Z" transform="translate(-281.421 -154.621)" fill="#484848"/>
  <rect id="Rectangle_162" data-name="Rectangle 162" width="0.791" height="5.14" transform="translate(13.441 16.606)" fill="#484848"/>
  <path id="Path_684" data-name="Path 684" d="M311.3,460.8h-1.581a1.979,1.979,0,0,0-1.977,1.977.4.4,0,0,0,.4.4h4.744a.4.4,0,0,0,.4-.4A1.979,1.979,0,0,0,311.3,460.8Zm-2.7,1.582a1.189,1.189,0,0,1,1.119-.791H311.3a1.188,1.188,0,0,1,1.119.791Z" transform="translate(-296.671 -439.45)" fill="#484848"/>
  <rect id="Rectangle_163" data-name="Rectangle 163" width="6.326" height="0.791" transform="translate(10.674 13.047)" fill="#484848"/>
  <rect id="Rectangle_164" data-name="Rectangle 164" width="2.372" height="0.791" transform="translate(2.766 5.535)" fill="#484848"/>
  <path id="Path_685" data-name="Path 685" d="M107.291,264.533h-3.954a.4.4,0,0,0-.4.4v7.117a.4.4,0,0,0,.4.4h3.954a.4.4,0,0,0,.4-.4v-7.117A.4.4,0,0,0,107.291,264.533Zm-.4,7.117h-3.163v-6.326H106.9Z" transform="translate(-101.361 -252.276)" fill="#484848"/>
</svg>
