<svg id="_007-shopping-bag" data-name="007-shopping-bag" xmlns="http://www.w3.org/2000/svg" width="17.884" height="22.344" viewBox="0 0 17.884 22.344">
  <path id="Path_690" data-name="Path 690" d="M66.68,19.315,65.4,4.907a.616.616,0,0,0-.612-.562H62.156a4.415,4.415,0,0,0-8.828,0H50.7a.613.613,0,0,0-.612.562L48.8,19.315c0,.018,0,.037,0,.055a3.184,3.184,0,0,0,3.354,2.975H63.33a3.184,3.184,0,0,0,3.354-2.975A.222.222,0,0,0,66.68,19.315ZM57.742,1.234a3.184,3.184,0,0,1,3.18,3.112H54.562A3.184,3.184,0,0,1,57.742,1.234ZM63.33,21.11H52.154a1.969,1.969,0,0,1-2.12-1.713L51.258,5.584h2.065V7.457a.617.617,0,1,0,1.234,0V5.584h6.365V7.457a.617.617,0,1,0,1.234,0V5.584h2.065L65.451,19.4A1.972,1.972,0,0,1,63.33,21.11Z" transform="translate(-48.8)" fill="#484848"/>
</svg>
