<svg xmlns="http://www.w3.org/2000/svg" width="19.155" height="20.305" viewBox="0 0 19.155 20.305">
  <path id="Path_715" data-name="Path 715" d="M18.868.121a.576.576,0,0,0-.574-.082l-5.66,1.969h0L6.932.039a2.75,2.75,0,0,0-.82,0L.41,2.007A.631.631,0,0,0,0,2.623V19.686a.537.537,0,0,0,.246.492.662.662,0,0,0,.369.123A.37.37,0,0,0,.82,20.26l5.7-1.969h0l5.7,1.969a.37.37,0,0,0,.205.041h.41a.37.37,0,0,0,.205-.041l5.7-1.969a.617.617,0,0,0,.41-.574V.613A.625.625,0,0,0,18.868.121ZM6.112,17.512.82,19.358V2.746L6.112.9Zm.82,0V.9l5.291,1.846V19.358Zm11.4,0-5.291,1.846V2.746L18.335.9Z" transform="translate(0 0.004)" fill="#484848"/>
</svg>
